<svg width="66" height="61" viewBox="0 0 66 61" fill="none" xmlns="http://www.w3.org/2000/svg">
<ellipse cx="33" cy="30.5" rx="33" ry="30.5" fill="#222BEE"/>
<path d="M30.0259 35.001L29.7368 32.7607V32.562C29.9897 32.1164 30.333 31.8936 30.7666 31.8936L45.5088 31.9116C46.2435 31.9116 46.8397 31.6768 47.2974 31.207L47.6587 31.5684C46.9842 32.8089 46.647 35.0552 46.647 38.3071C46.647 38.813 46.7554 39.7886 46.9722 41.2339C47.201 42.6912 47.3154 43.6548 47.3154 44.1245C47.3154 44.6063 47.2371 44.9616 47.0806 45.1904C46.924 45.4193 46.7373 45.5337 46.5205 45.5337C46.3037 45.5337 46.111 45.4072 45.9424 45.1543C45.7858 44.9014 45.7075 44.5521 45.7075 44.1064L45.9966 40.1138C45.9966 39.0539 45.8099 38.259 45.4365 37.729C45.0632 37.187 44.5573 36.916 43.9189 36.916C42.4857 36.916 41.769 37.994 41.769 40.1499C41.769 40.981 41.8895 42.1854 42.1304 43.7632C42.3833 45.341 42.5098 46.3286 42.5098 46.7261C42.5098 47.1235 42.4194 47.4246 42.2388 47.6294C42.0581 47.8462 41.8473 47.9546 41.6064 47.9546C41.3776 47.9546 41.1729 47.8522 40.9922 47.6475C40.8236 47.4548 40.7393 47.1898 40.7393 46.8525L41.0645 41.0894C41.0645 38.9816 40.6128 37.9277 39.7095 37.9277L38.3364 37.9639H24.1362C23.0643 37.9639 22.2754 38.1686 21.7695 38.5781C21.1914 39.0599 20.9023 40.4209 20.9023 42.6611C20.9023 43.5645 21.0409 44.8953 21.3179 46.6538C21.5949 48.4243 21.7334 49.7552 21.7334 50.6465C21.7334 51.9352 21.2757 52.5796 20.3604 52.5796C19.3727 52.5796 18.8789 51.9172 18.8789 50.5923C18.8789 49.689 19.0776 48.3521 19.4751 46.5815C19.8726 44.811 20.0713 43.4681 20.0713 42.5527L19.981 36.5005V15.4351C19.981 14.6883 19.7521 14.0921 19.2944 13.6465L19.6558 13.2671C20.1496 13.7368 20.7518 13.9717 21.4624 13.9717H44.6597C45.3944 13.9717 45.9966 13.7368 46.4663 13.2671L46.8276 13.6465C46.2977 14.1764 46.0327 15.2122 46.0327 16.7539V17.5669C46.0327 18.9279 46.2977 19.8613 46.8276 20.3672L46.4663 20.7104C45.8641 20.0962 44.4489 19.7891 42.2207 19.7891L33.2417 20.2046C31.0256 20.2046 29.6164 19.8975 29.0142 19.2832L28.6348 19.6445C29.1045 20.1022 29.3394 20.7104 29.3394 21.4692C29.3394 22.216 29.1045 22.8182 28.6348 23.2759L29.0142 23.6191C29.5923 23.0169 30.8088 22.7158 32.6636 22.7158L40.2334 23.1313C42.1003 23.1313 43.3348 22.8302 43.937 22.228L44.3164 22.5894C43.7865 23.1193 43.5215 24.2274 43.5215 25.9136V26.6182C43.5215 27.9069 43.7865 28.8162 44.3164 29.3462L43.937 29.7256C43.3589 29.1234 42.1364 28.8223 40.2695 28.8223L32.6997 29.2197C30.8449 29.2197 29.6164 28.9186 29.0142 28.3164L28.6528 28.6777C29.1587 29.1956 29.4116 30.099 29.4116 31.3877L29.3755 32.7969L29.0684 34.9648C29.0684 35.3984 29.2249 35.6152 29.5381 35.6152C29.8633 35.6152 30.0259 35.4105 30.0259 35.001Z" fill="white"/>
</svg>
